<svg preserveAspectRatio="xMidYMid meet" viewBox="302.1312 535.7568 694.272 294.91200000000003" xmlns="http://www.w3.org/2000/svg" version="1.0" style="max-height: 500px" width="694.272" height="294.91200000000003">  <g stroke="none" fill="#ffffff" transform="translate(0.000000,3072.000000) scale(0.100000,-0.100000)"> <path d="M4360 25175 c-30 -7 -74 -14 -97 -14 -52 -1 -73 -9 -73 -27 0 -8 48 -72 108 -143 168 -201 217 -261 220 -272 2 -5 -11 -33 -29 -62 -53 -86 -110 -198 -104 -206 6 -11 118 -23 138 -15 9 3 30 27 46 53 17 25 62 89 101 140 38 52 70 103 70 114 0 19 -12 40 -132 220 -32 49 -58 90 -58 92 0 13 -82 124 -95 129 -20 7 -25 7 -95 -9z"/> <path d="M4730 25135 c0 -8 6 -29 14 -47 8 -18 30 -82 50 -143 54 -168 88 -259 100 -271 13 -14 249 18 272 37 7 6 21 37 30 68 8 31 20 70 25 87 5 17 9 36 9 42 0 16 -44 15 -130 -4 -52 -12 -74 -14 -83 -5 -12 12 -47 117 -47 142 0 27 -42 54 -126 82 -93 31 -114 33 -114 12z"/> <path d="M3992 25053 c-5 -16 -19 -57 -30 -93 -23 -75 -32 -80 -113 -56 -91 27 -107 23 -187 -46 -99 -88 -96 -97 38 -120 58 -10 130 -23 160 -27 30 -5 69 -14 85 -19 17 -6 49 -13 72 -15 47 -6 67 9 83 59 4 16 18 54 30 84 43 106 41 113 -36 191 -38 38 -74 69 -80 69 -6 0 -16 -12 -22 -27z"/> <path d="M4242 24795 c-7 -14 -27 -72 -46 -128 -77 -231 -98 -309 -90 -317 10 -9 80 1 126 19 19 7 36 27 52 63 31 67 96 218 103 239 5 17 -103 149 -122 149 -7 0 -17 -11 -23 -25z"/> <path d="M5346 24782 c-2 -4 -18 -48 -34 -98 -32 -94 -67 -193 -103 -284 -11 -30 -23 -65 -26 -78 -8 -35 -40 -42 -184 -42 -100 0 -131 -3 -135 -14 -3 -7 6 -38 19 -68 l24 -54 114 -17 c232 -35 263 -37 277 -23 7 7 64 116 127 242 130 263 128 220 18 362 -59 76 -84 95 -97 74z"/> <path d="M9050 24744 c-25 -3 -59 -11 -77 -19 -17 -8 -37 -15 -44 -15 -6 0 -40 -15 -73 -34 -94 -53 -194 -158 -233 -246 -46 -103 -52 -133 -52 -265 -1 -146 18 -220 79 -315 47 -73 155 -170 233 -208 147 -73 346 -80 507 -21 75 28 220 139 220 168 0 12 -145 161 -157 161 -5 0 -24 -14 -43 -31 -53 -46 -99 -73 -159 -92 -68 -22 -92 -21 -170 3 -106 34 -168 90 -218 200 -33 74 -35 202 -4 270 32 72 73 122 136 165 l57 40 112 0 c109 0 112 -1 166 -34 30 -18 70 -47 89 -64 l35 -30 78 82 c43 46 78 87 78 92 0 20 -97 100 -155 128 -118 57 -133 61 -248 65 -62 2 -132 2 -157 0z"/> <path d="M6574 24732 c-13 -8 -53 -92 -103 -217 -18 -44 -36 -87 -41 -96 -4 -8 -34 -76 -65 -150 -32 -74 -71 -162 -86 -197 -16 -34 -29 -64 -29 -66 0 -3 -25 -57 -55 -121 -30 -63 -55 -118 -55 -120 0 -3 -14 -34 -31 -70 -17 -36 -28 -72 -25 -80 4 -12 29 -15 125 -15 135 0 151 7 171 80 6 19 23 60 38 90 l27 55 244 0 c207 0 245 -2 252 -15 4 -8 24 -55 44 -105 21 -49 43 -93 49 -97 16 -11 264 -10 271 1 3 6 -6 34 -20 63 -14 29 -58 127 -97 218 -39 91 -81 188 -93 215 -13 28 -38 86 -56 130 -18 44 -36 85 -40 90 -4 6 -41 91 -83 190 -43 99 -84 190 -92 203 -14 21 -21 22 -127 22 -61 0 -117 -4 -123 -8z m149 -370 c28 -71 77 -193 93 -230 8 -18 14 -44 14 -57 l0 -25 -139 0 c-77 0 -142 4 -145 8 -4 6 27 93 63 177 5 11 16 40 26 65 28 73 47 110 59 110 6 0 19 -21 29 -48z"/> <path d="M7456 24703 c-9 -46 -4 -1056 5 -1080 8 -22 13 -23 121 -23 62 0 119 4 125 8 9 6 13 54 15 162 l3 155 100 0 99 0 104 -155 c57 -85 110 -159 117 -163 8 -4 72 -6 142 -5 121 3 128 4 127 23 0 19 -53 102 -164 260 -28 38 -50 75 -50 82 0 6 17 21 38 34 43 26 122 99 122 113 0 5 6 17 13 25 22 25 47 132 47 197 0 167 -88 302 -230 353 -91 33 -176 41 -452 41 l-276 0 -6 -27z m582 -218 c41 -13 59 -25 82 -57 26 -36 30 -50 30 -108 0 -61 -3 -70 -34 -106 -41 -48 -83 -60 -253 -70 -84 -5 -117 -3 -128 6 -12 10 -15 42 -15 175 0 89 3 165 7 168 14 14 258 7 311 -8z"/> <path d="M3809 24576 c-2 -2 -89 -9 -194 -16 -139 -9 -194 -16 -206 -26 -22 -20 -102 -222 -95 -240 7 -17 63 -13 151 11 28 8 68 16 90 19 22 3 80 14 129 26 132 30 155 26 180 -30 3 -8 19 -35 34 -60 15 -25 41 -69 57 -98 17 -29 35 -52 42 -52 6 0 25 18 42 39 31 38 42 94 23 117 -4 5 -19 36 -31 69 -33 83 -60 147 -71 167 -6 10 -10 24 -10 31 0 28 -36 47 -87 47 -27 0 -52 -2 -54 -4z"/> <path d="M5043 24560 c-29 -4 -61 -11 -70 -15 -10 -4 -38 -10 -63 -15 -75 -13 -234 -48 -252 -55 -27 -11 -22 -26 25 -79 l43 -49 71 2 c39 1 86 6 104 11 19 6 60 10 91 10 61 0 98 21 98 56 0 9 8 38 17 63 15 45 14 83 -4 80 -4 -1 -32 -5 -60 -9z"/> <path d="M5533 24202 c-46 -53 -95 -111 -110 -127 -59 -64 -113 -134 -113 -146 0 -6 24 -39 53 -73 29 -34 66 -78 81 -98 32 -43 57 -47 126 -23 23 8 55 15 70 15 47 0 54 22 20 66 -17 21 -44 57 -60 78 -17 21 -30 42 -30 45 0 3 27 38 60 76 61 71 67 89 51 141 -6 16 -15 55 -21 87 -9 42 -16 57 -28 57 -9 0 -54 -44 -99 -98z"/> <path d="M3693 24215 c-78 -19 -85 -23 -76 -39 7 -13 43 -55 163 -192 25 -28 69 -79 99 -113 59 -69 67 -69 88 2 24 81 19 98 -69 232 -93 139 -91 138 -205 110z"/> <path d="M3448 24165 c-3 -3 -40 -14 -84 -25 -113 -29 -114 -32 -44 -115 33 -38 60 -77 60 -86 0 -8 -27 -44 -60 -80 -32 -35 -59 -71 -60 -79 0 -13 20 -119 35 -187 8 -35 37 -28 70 16 32 41 103 124 173 201 64 72 102 121 102 134 0 13 -154 207 -174 218 -7 4 -15 5 -18 3z"/> <path d="M4987 23995 c-24 -78 -22 -87 26 -157 128 -186 141 -201 172 -193 11 3 46 11 78 17 32 6 61 17 64 24 8 23 -280 364 -307 364 -11 0 -22 -19 -33 -55z"/> <path d="M3653 23768 c-19 -22 -233 -454 -233 -469 0 -23 152 -209 171 -209 12 0 22 14 32 48 8 26 29 85 47 132 17 47 35 99 40 115 5 17 18 55 30 85 12 30 24 65 27 78 11 45 41 54 175 51 68 -2 128 0 135 4 9 6 7 19 -8 55 -30 70 -41 78 -117 86 -37 4 -107 11 -157 16 -49 5 -99 12 -111 15 -12 4 -25 1 -31 -7z"/> <path d="M4917 23715 c-42 -50 -42 -52 -23 -97 8 -18 36 -87 61 -153 26 -66 51 -130 56 -142 8 -22 13 -23 126 -23 65 0 136 5 158 10 22 5 86 12 142 16 76 5 106 11 116 23 21 25 79 180 81 215 1 38 -1 38 -159 6 -60 -12 -132 -25 -160 -30 -27 -5 -63 -13 -80 -18 -16 -6 -47 -13 -68 -16 -37 -5 -39 -3 -71 47 -18 29 -36 59 -39 67 -4 8 -16 29 -27 45 -11 17 -24 40 -29 52 -6 12 -19 26 -29 32 -16 8 -25 3 -55 -34z"/> <path d="M4761 23520 c-75 -20 -69 -11 -165 -238 l-36 -84 62 -69 c34 -38 66 -69 70 -69 12 0 24 29 78 195 28 88 58 175 66 193 18 41 18 92 2 91 -7 -1 -42 -9 -77 -19z"/> <path d="M4036 23508 c-146 -11 -153 -16 -183 -107 -13 -41 -22 -80 -19 -88 7 -17 35 -17 94 1 26 7 97 24 157 36 207 42 220 45 223 61 1 9 -20 37 -47 62 -56 52 -42 50 -225 35z"/> <path d="M4387 23390 c-23 -33 -72 -101 -109 -152 -38 -50 -68 -99 -68 -108 0 -19 237 -381 274 -418 l22 -23 105 16 c145 22 149 23 149 43 0 9 -64 93 -143 185 -78 92 -152 181 -164 198 l-22 30 27 47 c15 26 47 87 72 135 51 102 49 107 -43 107 l-57 0 -43 -60z"/> <path d="M8681 23338 c-49 -8 -66 -20 -87 -59 -40 -78 -4 -128 120 -170 85 -28 126 -56 126 -85 0 -24 -51 -73 -83 -79 -36 -7 -121 18 -150 43 -13 11 -20 13 -29 4 -33 -33 60 -82 156 -82 96 0 146 41 146 120 0 44 -40 84 -107 104 -32 10 -77 27 -100 37 -40 17 -43 22 -43 57 0 56 22 72 99 72 37 0 70 -6 84 -15 15 -9 27 -11 37 -5 13 8 12 12 -5 29 -25 25 -107 39 -164 29z"/> <path d="M6924 23328 c-5 -7 -7 -103 -4 -213 l5 -200 129 -3 c136 -3 167 1 149 19 -6 6 -60 11 -121 12 -61 1 -113 5 -117 9 -4 3 -6 87 -5 186 0 142 -2 181 -13 191 -11 9 -16 8 -23 -1z"/> <path d="M7569 23318 c-14 -23 -21 -37 -82 -168 -88 -188 -98 -213 -93 -226 10 -26 24 -14 50 40 14 29 33 56 42 60 8 3 62 6 119 6 103 0 104 0 124 -29 11 -15 25 -40 31 -55 13 -34 55 -38 44 -3 -8 27 -95 218 -158 347 -26 52 -56 63 -77 28z m71 -105 c0 -6 6 -24 14 -40 53 -107 51 -113 -48 -113 -103 0 -108 3 -91 48 7 20 23 56 34 80 12 23 26 55 32 70 l11 27 24 -30 c13 -16 24 -35 24 -42z"/> <path d="M8034 23327 c-5 -9 -7 -105 -4 -214 l5 -198 122 -3 c116 -2 125 -1 162 23 30 18 42 33 46 59 10 51 -3 94 -35 117 l-28 21 24 35 c29 43 30 68 4 110 -28 47 -54 56 -176 61 -93 4 -113 2 -120 -11z m243 -49 c31 -29 31 -77 -1 -107 -21 -20 -32 -22 -117 -19 l-94 3 -3 49 c-6 95 -5 96 100 96 80 0 95 -3 115 -22z m10 -188 c56 -34 56 -92 1 -125 -26 -16 -51 -20 -120 -20 -47 0 -90 3 -94 7 -10 11 -18 103 -10 132 6 26 8 26 99 26 74 0 98 -4 124 -20z"/> <path d="M3920 23194 c-36 -7 -82 -16 -102 -19 -36 -6 -38 -8 -57 -69 -28 -91 -35 -133 -22 -140 6 -4 51 0 101 9 50 9 94 14 99 11 4 -3 16 -31 26 -63 36 -117 44 -130 89 -145 22 -8 57 -20 76 -28 19 -7 48 -15 64 -17 27 -5 28 -4 23 23 -5 30 -52 174 -68 209 -5 11 -13 34 -18 50 -5 17 -19 55 -31 85 -12 30 -25 66 -29 80 -6 21 -14 25 -47 26 -21 1 -68 -4 -104 -12z"/> <path d="M4837 23083 c-26 -65 -47 -126 -47 -136 0 -25 127 -150 145 -144 7 3 21 28 29 54 39 123 42 128 78 127 18 0 65 -7 104 -14 l72 -14 81 69 c45 37 81 73 81 79 0 11 -71 29 -175 46 -27 4 -102 17 -165 29 -63 11 -124 21 -136 21 -17 0 -29 -20 -67 -117z"/> </g> </svg>